<?xml version="1.0" encoding="UTF-8"?>
<svg width="180px" height="180px" viewBox="0 0 180 180" version="1.1" xmlns="http://www.w3.org/2000/svg" xmlns:xlink="http://www.w3.org/1999/xlink">
    <!-- Generator: Sketch 52.6 (67491) - http://www.bohemiancoding.com/sketch -->
    <title>Untitled 5</title>
    <desc>Created with Sketch.</desc>
    <defs>
        <linearGradient x1="33.3527932%" y1="28.9680235%" x2="40.2077276%" y2="84.3144223%" id="linearGradient-1">
            <stop stop-color="#2AD2F8" offset="0%"></stop>
            <stop stop-color="#9868EB" offset="100%"></stop>
        </linearGradient>
        <path d="M97,131.964922 C69.9380473,131.964922 48,110.026875 48,82.9649223 C48,56.6802767 68.7664651,35.2380486 94.7518887,34.0274753 C94.8232609,34.0216749 97.0641714,33.8702228 97.3383216,34.3450649 C97.6180587,34.8295836 97.1234855,35.4259188 96.5418556,35.9957703 C88.9439609,43.9785332 84.5,54.5743287 84.5,66.4649223 C84.5,91.0415937 104.423329,110.964922 129,110.964922 C133.183834,110.964922 135.380807,109.439728 136.454708,110.964922 C137.52861,112.490117 135.284888,115.277041 135.248303,115.316637 C126.278727,126.774185 112.67823,131.964922 97,131.964922 Z" id="path-2"></path>
        <filter x="-38.9%" y="-35.2%" width="177.7%" height="170.4%" filterUnits="objectBoundingBox" id="filter-3">
            <feMorphology radius="1" operator="dilate" in="SourceAlpha" result="shadowSpreadOuter1"></feMorphology>
            <feOffset dx="0" dy="0" in="shadowSpreadOuter1" result="shadowOffsetOuter1"></feOffset>
            <feGaussianBlur stdDeviation="10.5" in="shadowOffsetOuter1" result="shadowBlurOuter1"></feGaussianBlur>
            <feColorMatrix values="0 0 0 0 0.325490196   0 0 0 0 0.525490196   0 0 0 0 0.870588235  0 0 0 1 0" type="matrix" in="shadowBlurOuter1"></feColorMatrix>
        </filter>
        <linearGradient x1="54.5425996%" y1="50%" x2="34.3547243%" y2="100%" id="linearGradient-4">
            <stop stop-color="#54FCC6" offset="0%"></stop>
            <stop stop-color="#2AC6F7" offset="100%"></stop>
        </linearGradient>
    </defs>
    <g id="Page-1" stroke="none" stroke-width="1" fill="none" fill-rule="evenodd">
        <rect id="Rectangle" fill="#2A1451" x="0" y="0" width="180" height="180" rx="39"></rect>
        <g id="Path">
            <use fill="black" fill-opacity="1" filter="url(#filter-3)" xlink:href="#path-2"></use>
            <use fill="url(#linearGradient-1)" fill-rule="evenodd" xlink:href="#path-2"></use>
        </g>
        <polygon id="Star" fill="#6846A9" points="17.5 22.6122466 14.2671811 24.9495935 15.4911341 21.1527201 12.2691892 18.8004065 16.2584526 18.7911566 17.5 15 18.7415474 18.7911566 22.7308108 18.8004065 19.5088659 21.1527201 20.7328189 24.9495935"></polygon>
        <polygon id="Star-Copy-3" fill="#6846A9" points="69.5 166.612247 66.2671811 168.949593 67.4911341 165.15272 64.2691892 162.800407 68.2584526 162.791157 69.5 159 70.7415474 162.791157 74.7308108 162.800407 71.5088659 165.15272 72.7328189 168.949593"></polygon>
        <polygon id="Star-Copy-6" fill="#6846A9" points="154.5 153.612247 151.267181 155.949593 152.491134 152.15272 149.269189 149.800407 153.258453 149.791157 154.5 146 155.741547 149.791157 159.730811 149.800407 156.508866 152.15272 157.732819 155.949593"></polygon>
        <polygon id="Star-Copy-7" fill="#6846A9" points="110.5 94.6122466 107.267181 96.9495935 108.491134 93.1527201 105.269189 90.8004065 109.258453 90.7911566 110.5 87 111.741547 90.7911566 115.730811 90.8004065 112.508866 93.1527201 113.732819 96.9495935"></polygon>
        <polygon id="Star-Copy-8" fill="#6846A9" points="143.5 56.6122466 140.267181 58.9495935 141.491134 55.1527201 138.269189 52.8004065 142.258453 52.7911566 143.5 49 144.741547 52.7911566 148.730811 52.8004065 145.508866 55.1527201 146.732819 58.9495935"></polygon>
        <polygon id="Star-Copy-9" fill="#6846A9" points="68 9.53617932 65.648859 11.236068 66.5390067 8.47470551 64.1957739 6.76393202 67.0970565 6.75720483 68 4 68.9029435 6.75720483 71.8042261 6.76393202 69.4609933 8.47470551 70.351141 11.236068"></polygon>
        <polygon id="Star-Copy-10" fill="#6846A9" points="111 29.5361793 108.648859 31.236068 109.539007 28.4747055 107.195774 26.763932 110.097056 26.7572048 111 24 111.902944 26.7572048 114.804226 26.763932 112.460993 28.4747055 113.351141 31.236068"></polygon>
        <polygon id="Star-Copy-11" fill="#6846A9" points="173 105.536179 170.648859 107.236068 171.539007 104.474706 169.195774 102.763932 172.097056 102.757205 173 100 173.902944 102.757205 176.804226 102.763932 174.460993 104.474706 175.351141 107.236068"></polygon>
        <polygon id="Star-Copy-12" fill="#6846A9" points="144 128.152134 142.236644 129.427051 142.904255 127.356029 141.14683 126.072949 143.322792 126.067904 144 124 144.677208 126.067904 146.85317 126.072949 145.095745 127.356029 145.763356 129.427051"></polygon>
        <polygon id="Star-Copy-13" fill="#6846A9" points="130 138.152134 128.236644 139.427051 128.904255 137.356029 127.14683 136.072949 129.322792 136.067904 130 134 130.677208 136.067904 132.85317 136.072949 131.095745 137.356029 131.763356 139.427051"></polygon>
        <polygon id="Star-Copy-14" fill="#6846A9" points="30 141.152134 28.2366442 142.427051 28.904255 140.356029 27.1468305 139.072949 29.3227923 139.067904 30 137 30.6772077 139.067904 32.8531695 139.072949 31.095745 140.356029 31.7633558 142.427051"></polygon>
        <polygon id="Star-Copy-15" fill="#6846A9" points="20 163.152134 18.2366442 164.427051 18.904255 162.356029 17.1468305 161.072949 19.3227923 161.067904 20 159 20.6772077 161.067904 22.8531695 161.072949 21.095745 162.356029 21.7633558 164.427051"></polygon>
        <polygon id="Star-Copy-16" fill="#6846A9" points="116 170.152134 114.236644 171.427051 114.904255 169.356029 113.14683 168.072949 115.322792 168.067904 116 166 116.677208 168.067904 118.85317 168.072949 117.095745 169.356029 117.763356 171.427051"></polygon>
        <polygon id="Star-Copy-5" fill="#6846A9" points="35.5 80.6122466 32.2671811 82.9495935 33.4911341 79.1527201 30.2691892 76.8004065 34.2584526 76.7911566 35.5 73 36.7415474 76.7911566 40.7308108 76.8004065 37.5088659 79.1527201 38.7328189 82.9495935"></polygon>
        <polygon id="Star-Copy-4" fill="#6846A9" points="9.5 119.612247 6.26718111 121.949593 7.49113415 118.15272 4.26918916 115.800407 8.25845262 115.791157 9.5 112 10.7415474 115.791157 14.7308108 115.800407 11.5088659 118.15272 12.7328189 121.949593"></polygon>
        <polygon id="Star-Copy-2" fill="#6846A9" points="10.5 36.2282017 7.85496636 38.1405765 8.85638248 35.0340437 6.22024568 33.1094235 9.48418851 33.1018554 10.5 30 11.5158115 33.1018554 14.7797543 33.1094235 12.1436175 35.0340437 13.1450336 38.1405765"></polygon>
        <polygon id="Star-Copy" fill="#6846A9" points="26 33.5361793 23.648859 35.236068 24.5390067 32.4747055 22.1957739 30.763932 25.0970565 30.7572048 26 28 26.9029435 30.7572048 29.8042261 30.763932 27.4609933 32.4747055 28.351141 35.236068"></polygon>
        <path d="M180,41 L140,41 C123.983742,41 111,28.0162577 111,12 L111,0 L141,0 C162.539105,-3.95666944e-15 180,17.4608948 180,39 L180,41 Z" id="Combined-Shape" fill="url(#linearGradient-4)"></path>
        <text id="DARK" font-family="DINCondensed-Bold, DIN Condensed" font-size="24" font-style="condensed" font-weight="bold" fill="#065167">
            <tspan x="123.424" y="29">DARK</tspan>
        </text>
    </g>
</svg>